<svg xmlns="http://www.w3.org/2000/svg" width="48" height="48" viewBox="0 0 24 24" fill="none">
  <path d="M7 9.5C7 8.94772 7.44772 8.5 8 8.5H11.5V17.5H8C7.44772 17.5 7 17.0523 7 16.5V9.5Z" fill="white"/>
  <path d="M17 9.5C17 8.94772 16.5523 8.5 16 8.5H12.5V17.5H16C16.5523 17.5 17 17.0523 17 16.5V9.5Z" fill="white"/>
  <path d="M14.75 8H12.5L13.628 6.11998C13.8588 5.73535 14.2745 5.5 14.723 5.5H14.75C15.4404 5.5 16 6.05964 16 6.75C16 7.44036 15.4404 8 14.75 8Z" fill="white"/>
  <path d="M11.4472 6.89443L12 8L12.5528 6.89443C12.7583 6.4835 12.4594 6 12 6C11.5406 6 11.2417 6.4835 11.4472 6.89443Z" fill="white"/>
  <path d="M9.25 8H11.5L10.372 6.11998C10.1412 5.73535 9.72554 5.5 9.27698 5.5H9.25C8.55964 5.5 8 6.05964 8 6.75C8 7.44036 8.55964 8 9.25 8Z" fill="white"/>
</svg>
